<?xml version="1.0" encoding="utf-8"?>
<!-- Generator: Adobe Illustrator 21.1.0, SVG Export Plug-In . SVG Version: 6.00 Build 0)  -->
<svg version="1.1" id="Layer_1" xmlns="http://www.w3.org/2000/svg" xmlns:xlink="http://www.w3.org/1999/xlink" x="0px" y="0px"
	 viewBox="0 0 1000 1000" style="enable-background:new 0 0 1000 1000;" xml:space="preserve">
<style type="text/css">
	.st0{fill:#FFFFFF;}
</style>
<g>
	<path class="st0" d="M963.2,382.8h-33.6l-64.1-249.2c-9.5-27.3-33.6-46.3-63.1-48.4L644.6,72.6c-48.4-4.2-97.8-6.3-146.2-6.3
		s-97.8,2.1-146.2,6.3L195.6,85.2c-29.4,2.1-53.6,22.1-63.1,49.4L72.6,382.8H36.8c-20,0-36.8,15.8-36.8,36.8v56.8
		c0,20,15.8,36.8,36.8,36.8h8.4L20,682.4c0,47.3,29.4,86.2,71.5,102v109.4c0,22.1,17.9,40,40,40H184c22.1,0,40-17.9,40-40v-102h552
		v102c0,22.1,17.9,40,40,40h52.6c22.1,0,40-17.9,40-40V783.4c41-14.7,70.5-53.6,71.5-99.9L958,512.1h5.3c20,0,36.8-15.8,36.8-36.8
		v-56.8C1000,398.5,984.2,382.8,963.2,382.8z M240.8,671.9c-37.9,0-68.3-30.5-68.3-68.3s30.5-68.3,68.3-68.3s68.3,30.5,68.3,68.3
		S278.7,671.9,240.8,671.9z M760.3,671.9c-37.9,0-68.3-30.5-68.3-68.3s30.5-68.3,68.3-68.3s68.3,30.5,68.3,68.3
		C827.6,641.4,797.1,671.9,760.3,671.9z M781.7,417.5v-26.6c0-36.1-72.3-54.3-108.5-54.3s-108.5,18.2-108.5,54.3v26.6H435.3v-26.6
		c0-36.1-72.3-54.3-108.5-54.3s-108.5,18.2-108.5,54.3v26.6H163l57.8-238.7l139.9-11.6c46.3-4.2,92.5-5.3,138.8-5.3
		s92.5,2.1,138.8,5.3l140.9,11.6l62,238.7H781.7z"/>
	<path class="st0" d="M673.2,201c-30,0-54.3,24.3-54.3,54.3s24.3,54.3,54.3,54.3s54.3-24.3,54.3-54.3S703.2,201,673.2,201z"/>
	<path class="st0" d="M326.8,201c-30,0-54.3,24.3-54.3,54.3s24.3,54.3,54.3,54.3s54.3-24.3,54.3-54.3C381,225.3,356.8,201,326.8,201
		z"/>
</g>
</svg>
